<svg class="award cup" viewBox="0 0 52 52">
<g transform="translate(3, 3)">
	<path d="M44.607,14.299c-1.174-1.315-2.787-1.333-3.854-1.333h-1.47l0.316-4.43c0-0.022,0.002-0.044,0.002-0.065
		c0.004-0.038,0.006-0.076,0.006-0.114c0-2.627-7.61-4.756-17-4.756C13.222,3.601,5.61,5.73,5.61,8.357
		c0,0.039,0.002,0.077,0.005,0.115c0,0.021,0.001,0.043,0.003,0.064L6.64,22.832c0.17,2.386,0.906,4.605,2.069,6.53
		C4.034,30.354,0,32.105,0,35.192c0,6.927,20.294,7.126,22.608,7.126s22.61-0.199,22.61-7.126c0-3.087-4.034-4.838-8.709-5.83
		c0.181-0.3,0.353-0.606,0.513-0.921l3.209-0.287c2.574-0.061,4.723-1.998,5.012-4.523l0.642-5.5
		C46.048,16.707,45.631,15.448,44.607,14.299z M22.608,7.072c6.154,0,11.143,1.045,11.143,2.335c0,1.291-4.989,2.337-11.143,2.337
		c-6.153,0-11.141-1.046-11.141-2.337C11.467,8.117,16.456,7.072,22.608,7.072z M41.066,35.187
		c-1.453,1.248-8.139,3.156-18.458,3.156c-10.319,0-17.004-1.902-18.458-3.151c0.844-0.724,3.45-1.681,7.506-2.345
		c2.579,2.236,5.941,3.572,9.6,3.572h2.706c3.659,0,7.021-1.336,9.601-3.572C37.618,33.511,40.225,34.462,41.066,35.187z
		 M42.923,17.795l-0.644,5.496c-0.123,1.08-1.025,1.871-2.146,1.882l-1.957,0.173c0.203-0.813,0.339-1.652,0.4-2.515l0.487-6.817
		h1.687c0.913,0,1.39,0.032,1.63,0.302C42.906,16.905,42.977,17.325,42.923,17.795z"/>
</g>
</svg>
